<svg xmlns="http://www.w3.org/2000/svg" viewBox="0 0 800 200.62"><defs><style>.cls-1{fill:#fff;}.cls-2{fill:#fffffe;}</style></defs><title>アセット 2</title><g id="レイヤー_2" data-name="レイヤー 2"><g id="レイヤー_1-2" data-name="レイヤー 1"><path class="cls-1" d="M256.33,177.75h-38l-9.88,21.55H194L237.94,105l42.35,94.3H265.63Zm-5.46-12.58L237.71,135l-13.8,30.17Z"/><path class="cls-1" d="M298.49,163.38V199.3H287.91V163.38h-4.52V153.5h4.52V136.72h10.58V153.5h8.23v9.88Z"/><path class="cls-1" d="M354.67,178.89H321.85a13.9,13.9,0,0,0,3.67,9,11.16,11.16,0,0,0,8.32,3.3,10.8,10.8,0,0,0,6.54-1.89q2.53-1.87,5.78-6.95l8.94,5a35.12,35.12,0,0,1-4.38,6,23.09,23.09,0,0,1-4.93,4.14,19.93,19.93,0,0,1-5.69,2.37,27.29,27.29,0,0,1-6.63.76q-10.26,0-16.46-6.59t-6.21-17.58q0-10.86,6-17.59t16.08-6.63q10.11,0,16,6.44t5.83,17.73Zm-10.86-8.65q-2.21-8.46-10.67-8.46a10.7,10.7,0,0,0-3.62.59,10.16,10.16,0,0,0-3.08,1.69,10.66,10.66,0,0,0-2.38,2.66,12,12,0,0,0-1.5,3.52Z"/><path class="cls-1" d="M375.35,119.88V199.3H364.77V119.88Z"/><path class="cls-1" d="M386,134.46a6.9,6.9,0,0,1,6.87-6.82,6.7,6.7,0,0,1,4.89,2,6.54,6.54,0,0,1,2,4.85,6.7,6.7,0,0,1-2,4.89,6.56,6.56,0,0,1-4.85,2,6.9,6.9,0,0,1-6.91-7Zm12.18,19v45.8H387.59V153.5Z"/><path class="cls-1" d="M451.75,178.89H418.93a13.89,13.89,0,0,0,3.66,9,11.19,11.19,0,0,0,8.33,3.3,10.77,10.77,0,0,0,6.53-1.89q2.54-1.87,5.78-6.95l8.94,5a35.64,35.64,0,0,1-4.37,6,23.38,23.38,0,0,1-4.94,4.14,19.81,19.81,0,0,1-5.69,2.37,27.29,27.29,0,0,1-6.63.76q-10.25,0-16.46-6.59t-6.2-17.58q0-10.86,6-17.59T430,152.23q10.11,0,16,6.44t5.83,17.73Zm-10.87-8.65q-2.2-8.46-10.67-8.46a10.74,10.74,0,0,0-3.62.59,10.16,10.16,0,0,0-3.08,1.69,10.62,10.62,0,0,0-2.37,2.66,12.31,12.31,0,0,0-1.51,3.52Z"/><path class="cls-1" d="M461.91,153.5h10.58v4.09a20.13,20.13,0,0,1,5.17-4.18,11.75,11.75,0,0,1,5.45-1.18,17.09,17.09,0,0,1,8.75,2.73L487,164.65a10,10,0,0,0-5.87-2.17q-8.65,0-8.65,13.07V199.3H461.91Z"/><path class="cls-1" d="M521.56,144.93h38.52V110h13.47v89.3H560.08V157.6H521.56v41.7H508.08V110h13.48Z"/><path class="cls-1" d="M583.42,176.07a22.74,22.74,0,0,1,7.1-16.88,25,25,0,0,1,34.7.05,24.52,24.52,0,0,1-.05,34.46,24.27,24.27,0,0,1-17.54,6.92,23.26,23.26,0,0,1-17.26-7.06A23.71,23.71,0,0,1,583.42,176.07Zm10.81.19q0,6.87,3.67,10.86a14.24,14.24,0,0,0,19.84,0q3.72-4,3.71-10.67c0-4.46-1.23-8-3.71-10.68a14.09,14.09,0,0,0-19.75,0A14.72,14.72,0,0,0,594.23,176.26Z"/><path class="cls-1" d="M641.89,153.5h10.58v4.09a20.3,20.3,0,0,1,5.17-4.18,11.82,11.82,0,0,1,5.46-1.18,17.05,17.05,0,0,1,8.74,2.73L667,164.65a10.08,10.08,0,0,0-5.88-2.17q-8.65,0-8.65,13.07V199.3H641.89Z"/><path class="cls-1" d="M677.63,153.5h10.62v4.23a17.38,17.38,0,0,1,12.51-5.5q8,0,12.46,5,3.85,4.29,3.86,14V199.3H706.45V173.72q0-6.76-1.88-9.36t-6.68-2.63q-5.26,0-7.47,3.48t-2.17,12v22.1H677.63Z"/><path class="cls-1" d="M770.61,178.89H737.79a13.89,13.89,0,0,0,3.66,9,11.19,11.19,0,0,0,8.33,3.3,10.77,10.77,0,0,0,6.53-1.89q2.54-1.87,5.78-6.95l8.94,5a35.64,35.64,0,0,1-4.37,6,23.38,23.38,0,0,1-4.94,4.14,19.81,19.81,0,0,1-5.69,2.37,27.29,27.29,0,0,1-6.63.76q-10.24,0-16.46-6.59t-6.2-17.58q0-10.86,6-17.59t16.09-6.63q10.1,0,16,6.44t5.83,17.73Zm-10.87-8.65q-2.21-8.46-10.67-8.46a10.78,10.78,0,0,0-3.62.59,10.16,10.16,0,0,0-3.08,1.69,10.43,10.43,0,0,0-2.37,2.66,12.31,12.31,0,0,0-1.51,3.52Z"/><path class="cls-1" d="M791.77,163.38V199.3H781.19V163.38h-4.51V153.5h4.51V136.72h10.58V153.5H800v9.88Z"/><g id="レイヤー_1-3" data-name="レイヤー 1"><path class="cls-2" d="M237.34,5.45l1.89,1.19a22.88,22.88,0,0,1,8.9,11.67c3.67,15.6-10.34,28.45-22.74,35.14a79.22,79.22,0,0,1-15.15,6.1l3,1.48c7,4.09,18.1,11.56,15.9,21.15-2.7,9.4-20.92,12.41-40.71,6.73-1.15-.35-1.7-.5-3-1A161,161,0,0,1,166,78.79c-7.28-3.88-14.39-8.05-21.49-12.26,6,9.43,5.31,20.7.47,30.5a29.82,29.82,0,0,1-4.5,5.93c-1.14,1.08-.57.56-1.71,1.58a11.47,11.47,0,0,1,2.43.32l.2,0a20.6,20.6,0,0,1,4.21.87,7.75,7.75,0,0,1,1.67.46,13.76,13.76,0,0,1,2.54.84,15.52,15.52,0,0,1,2.76,1.07,8.6,8.6,0,0,1,1.36.6,37.7,37.7,0,0,1,4.2,2l.64.4,1.45.8a45.56,45.56,0,0,1,7.49,6.06l0,0a23.08,23.08,0,0,1,2.88,3.11,4,4,0,0,1,.42.49,20.53,20.53,0,0,1,2.06,2.72,8.57,8.57,0,0,1,.79,1.1,17.59,17.59,0,0,1,1.42,2.32,10.84,10.84,0,0,1,1,1.6,53,53,0,0,1,4.28,10.4,47.82,47.82,0,0,1-33.81,58.57,12.83,12.83,0,0,1-1.81.38c-7.73,2.08-15.57,1.3-23.24-.43A536.12,536.12,0,0,1,35.23,177c14.38-14.6,29-29,44.51-42.42a245.66,245.66,0,0,1,22.54-17.92,39.16,39.16,0,0,1,5-4c1.14-.78,2.36-1.44,3.53-2.16a28.73,28.73,0,0,1-6.19-2.67A29.52,29.52,0,0,1,90.9,90.09c-10.09,16.41-31.2,20.64-47.65,11.69a32,32,0,0,1-5.1-3.61c-8.91-4.73-18.59-1.65-23.95,6.63A17.73,17.73,0,0,0,20.69,129l-5.91,10.24A29.56,29.56,0,0,1,4,98.89a29.9,29.9,0,0,1,24.1-14.71c-4.12-10.17-3-21.31,2.21-30.85a35.46,35.46,0,0,1,48.44-13h0c8.75,5.17,15.38,14,17.08,24.12a28.07,28.07,0,0,1,10.65-8.83C125.72,42,145.15,28.42,165.59,16.51c9-5.27,18.44-10.7,28.54-13.7C208.7-1.17,223.65-1.45,237.34,5.45ZM87.11,143.85c-1.53,1.31-.41.34-3.33,2.91-9,8-17.71,16.29-26.31,24.7,8.85,2.68,17.79,5,26.74,7.31,7.67,1.88,3.53.9,12.43,2.93C87.69,170.25,85.31,158,87.11,143.85ZM152.2,121a28.07,28.07,0,0,0-3.68-1.81c-7.39-3.29-15.67-3.33-23.48-1.78l-.09,0a29.85,29.85,0,0,0-5.34,2.27,90.44,90.44,0,0,0-10,6.22,34.4,34.4,0,0,0-6.59,8.26,36,36,0,0,0,13.17,49.17,37.09,37.09,0,0,0,8,3.4c6,.67,12.11,1.41,18.11.47a36.55,36.55,0,0,0,23.05-17.05c8.18-14.52,5.63-31.16-5.53-43.24l-1.61-1.5-.59-.53L156,123.53A30.56,30.56,0,0,0,152.2,121ZM72.8,50.59a23.64,23.64,0,1,0,8.65,32.3A23.65,23.65,0,0,0,72.8,50.59Zm55.43,16.3a17.74,17.74,0,1,0,6.49,24.23A17.75,17.75,0,0,0,128.23,66.89ZM231,15.42a27.88,27.88,0,0,0-5.22-2.05c-7.87-2.26-18.1-2.08-28.44.82-5.82,1.63-15.68,6.53-28.18,14-4.63,2.75-9.57,5.81-14.77,9.13-10.84,7-5,3.2-17.45,11.56,5.81.44,2.18.18,10.9.73,28,1.6,49.66,1.29,59-1.33,10.35-2.9,19.18-8.06,24.73-14.07,4.54-4.93,6.07-9.43,5.17-12.66C235.9,18.6,233.43,16.89,231,15.42ZM207.73,71.49a68.14,68.14,0,0,0-12.83-5.23c-5.75-1.65-17.43-3-32.82-3.86l-1.41-.07c5.74,3.28,11.53,6.49,17.44,9.45a94.42,94.42,0,0,0,13.55,5.77c8,2.3,15.82,2.93,21.57,2a20.17,20.17,0,0,0,3.52-.89,19.45,19.45,0,0,0-2.5-2.63,37.7,37.7,0,0,0-4.81-3.51Z"/></g></g></g></svg>